<?xml version="1.0" standalone="no"?>
<!DOCTYPE svg PUBLIC "-//W3C//DTD SVG 20010904//EN"
 "http://www.w3.org/TR/2001/REC-SVG-20010904/DTD/svg10.dtd">
<svg version="1.0" xmlns="http://www.w3.org/2000/svg"
 width="3264.000000pt" height="3264.000000pt" viewBox="0 0 3264.000000 3264.000000"
 preserveAspectRatio="xMidYMid meet">

<g transform="translate(0.000000,3264.000000) scale(0.100000,-0.100000)"
fill="#000000" stroke="none">
<path d="M15760 31429 c-4106 -154 -7972 -1970 -10713 -5034 -1415 -1581
-2497 -3479 -3136 -5497 -801 -2532 -927 -5203 -365 -7787 676 -3114 2322
-5937 4699 -8064 1270 -1136 2747 -2061 4330 -2712 2371 -975 4974 -1331 7516
-1030 3668 435 7041 2189 9502 4940 1415 1581 2497 3479 3136 5497 801 2532
927 5203 365 7787 -676 3114 -2322 5937 -4699 8064 -2907 2600 -6738 3982
-10635 3836z m-4480 -10739 c133 -10 351 -35 430 -50 30 -6 96 -17 147 -24 50
-8 99 -19 110 -24 10 -6 54 -15 98 -22 44 -7 88 -16 97 -21 10 -5 41 -14 70
-19 29 -5 76 -16 103 -24 134 -40 475 -150 515 -166 25 -10 62 -24 82 -30 21
-6 40 -16 43 -21 4 -5 14 -9 23 -9 9 0 40 -11 67 -25 28 -13 57 -25 65 -25 9
0 24 -6 35 -14 11 -7 54 -28 95 -45 71 -31 116 -52 290 -136 70 -33 235 -121
340 -179 25 -14 59 -32 76 -40 17 -8 36 -22 44 -30 7 -9 18 -16 24 -16 6 0 37
-18 69 -40 31 -22 61 -40 65 -40 5 0 34 -18 64 -39 31 -21 65 -42 76 -45 11
-4 27 -15 37 -26 10 -11 23 -20 29 -21 6 0 31 -16 56 -35 25 -19 56 -39 70
-46 14 -6 34 -19 45 -29 11 -9 52 -38 90 -65 39 -26 75 -53 80 -59 6 -6 30
-24 55 -41 38 -25 114 -81 220 -163 78 -61 206 -164 210 -170 3 -3 46 -40 95
-81 50 -41 102 -87 117 -101 15 -14 57 -53 95 -85 188 -163 573 -548 758 -759
33 -38 71 -81 85 -95 48 -52 186 -215 252 -300 36 -47 72 -92 80 -100 21 -24
100 -125 131 -167 37 -52 50 -69 102 -135 25 -31 45 -59 45 -61 0 -3 33 -53
73 -112 39 -58 81 -121 92 -139 11 -17 49 -72 85 -121 36 -49 72 -99 80 -111
76 -111 106 -151 198 -268 59 -74 114 -145 122 -157 8 -12 26 -35 40 -50 14
-15 36 -42 50 -59 54 -68 195 -237 234 -281 23 -25 59 -66 81 -92 22 -26 54
-62 71 -80 16 -17 73 -79 125 -137 159 -177 521 -535 693 -685 38 -33 74 -64
80 -70 6 -5 43 -37 81 -70 38 -33 77 -67 86 -75 22 -20 74 -61 188 -147 102
-76 119 -89 166 -125 17 -13 48 -36 70 -50 22 -15 58 -41 80 -58 22 -16 51
-36 65 -42 14 -7 51 -30 83 -50 31 -21 81 -53 110 -72 55 -35 175 -103 242
-136 22 -11 47 -24 55 -30 8 -5 26 -14 40 -20 14 -5 32 -14 40 -20 13 -8 101
-50 251 -119 25 -12 51 -21 57 -21 7 0 29 -9 49 -20 21 -11 44 -20 52 -20 8 0
33 -8 55 -19 23 -10 59 -23 81 -29 22 -6 60 -17 85 -25 129 -42 339 -93 415
-102 33 -4 68 -11 78 -17 10 -5 113 -16 230 -24 300 -22 629 -10 842 31 171
34 431 99 485 122 14 6 59 23 100 38 41 15 100 38 130 50 30 12 70 29 89 36
57 23 288 141 356 182 76 46 276 179 295 197 9 8 31 26 50 40 65 48 185 148
201 166 8 11 31 33 50 50 54 48 176 182 278 306 60 73 171 239 217 326 10 17
21 32 26 32 4 0 8 6 8 13 0 6 7 26 16 42 41 74 114 227 114 236 0 5 9 28 19
50 11 22 22 53 26 68 3 16 15 46 26 67 10 21 19 49 19 62 0 13 5 33 12 45 13
24 39 132 68 280 11 54 24 114 29 135 30 112 40 567 16 792 -15 146 -49 348
-70 420 -48 163 -98 308 -125 367 -11 24 -20 46 -20 49 0 12 -166 340 -188
371 -6 10 -44 68 -84 128 -96 147 -282 379 -390 485 -159 156 -455 410 -479
410 -4 0 -14 6 -21 13 -7 7 -60 44 -118 82 -58 37 -121 79 -141 92 -19 12 -40
23 -46 23 -6 0 -15 6 -21 13 -6 7 -44 30 -84 50 -40 21 -80 42 -88 47 -24 15
-182 87 -210 95 -14 4 -41 16 -60 26 -19 11 -41 19 -48 19 -7 0 -30 8 -50 19
-52 26 -215 80 -322 106 -30 7 -93 23 -140 34 -47 12 -105 26 -130 32 -25 6
-81 15 -125 19 -44 5 -134 16 -200 24 -130 17 -474 20 -630 6 -235 -20 -431
-41 -445 -46 -8 -3 -69 -14 -135 -25 -181 -29 -267 -46 -300 -59 -16 -6 -59
-18 -95 -25 -102 -22 -324 -88 -435 -130 -38 -14 -85 -30 -103 -35 -18 -4 -38
-12 -45 -18 -7 -5 -30 -15 -52 -22 -45 -14 -114 -42 -165 -69 -19 -10 -49 -22
-67 -25 -17 -4 -37 -14 -44 -22 -6 -8 -16 -14 -22 -14 -10 0 -106 -43 -137
-62 -8 -4 -46 -25 -85 -44 -38 -20 -88 -47 -110 -60 -22 -13 -58 -33 -80 -44
-22 -11 -60 -33 -85 -50 -25 -16 -70 -44 -100 -62 -88 -52 -359 -236 -438
-297 -181 -140 -400 -317 -427 -346 -16 -17 -77 -73 -135 -126 -125 -112 -246
-233 -390 -388 -107 -115 -145 -141 -206 -141 -63 0 -139 61 -149 120 -11 67
9 108 121 245 58 71 109 132 112 135 4 3 32 34 62 70 124 147 374 407 530 550
51 47 98 90 104 96 46 43 186 162 256 218 47 37 97 77 111 89 32 28 94 74 184
137 39 27 79 56 90 64 33 26 219 148 235 155 15 6 104 62 162 102 15 11 30 19
33 19 3 0 52 26 108 58 56 32 154 84 217 116 63 32 122 62 130 67 26 15 322
139 334 139 6 0 27 8 46 19 19 10 51 22 70 26 19 4 40 11 46 16 6 5 38 18 70
30 78 27 148 48 359 109 22 6 69 20 105 30 36 11 89 22 119 26 30 3 68 12 85
19 18 8 61 16 96 20 36 4 85 13 110 21 25 7 95 18 155 24 61 6 130 16 155 21
25 6 142 17 260 24 118 8 261 17 318 21 58 4 159 2 235 -5 72 -6 190 -16 260
-22 71 -5 139 -14 152 -19 13 -5 64 -14 112 -20 48 -6 104 -17 123 -24 19 -8
62 -17 94 -21 33 -4 71 -12 85 -17 14 -6 51 -16 81 -24 114 -27 429 -133 453
-152 7 -5 26 -12 42 -16 34 -8 137 -56 340 -157 125 -62 178 -91 265 -141 14
-8 43 -25 65 -37 155 -89 539 -372 666 -492 122 -115 267 -261 341 -343 85
-95 252 -300 293 -360 125 -184 151 -224 195 -307 9 -16 21 -37 28 -46 17 -26
80 -142 98 -183 9 -19 33 -71 53 -115 21 -44 48 -105 61 -135 13 -30 31 -73
42 -96 10 -22 18 -47 18 -55 0 -8 8 -30 19 -49 10 -19 21 -52 25 -74 4 -21 13
-52 21 -70 11 -27 27 -83 81 -296 7 -30 18 -89 24 -130 6 -41 15 -91 20 -110
11 -37 33 -258 51 -515 11 -154 10 -188 -27 -594 -8 -90 -17 -167 -19 -171 -2
-4 -11 -53 -20 -111 -9 -57 -23 -131 -31 -164 -36 -144 -57 -225 -80 -300 -13
-44 -24 -84 -24 -90 -1 -5 -9 -28 -20 -50 -11 -22 -19 -47 -20 -55 0 -8 -9
-32 -20 -53 -11 -20 -20 -42 -20 -48 0 -12 -45 -120 -94 -224 -18 -38 -36 -80
-40 -92 -4 -13 -11 -23 -16 -23 -4 0 -11 -12 -15 -27 -3 -16 -14 -39 -23 -53
-9 -14 -23 -38 -32 -55 -23 -44 -44 -78 -56 -95 -7 -8 -24 -40 -40 -70 -15
-30 -37 -67 -48 -81 -12 -14 -26 -35 -33 -45 -7 -10 -28 -41 -48 -69 -19 -27
-43 -61 -52 -75 -90 -131 -324 -400 -478 -550 -155 -149 -377 -337 -479 -405
-16 -11 -39 -27 -51 -35 -12 -8 -35 -24 -51 -35 -16 -11 -31 -22 -34 -25 -9
-10 -97 -69 -150 -100 -19 -12 -53 -32 -75 -45 -85 -51 -268 -149 -375 -201
-184 -89 -217 -104 -231 -104 -8 0 -19 -4 -24 -9 -6 -5 -48 -23 -95 -41 -47
-17 -98 -38 -115 -45 -16 -7 -51 -19 -78 -25 -26 -7 -50 -16 -52 -21 -3 -4
-31 -13 -63 -19 -31 -7 -69 -19 -84 -26 -15 -8 -36 -14 -47 -14 -11 0 -49 -9
-83 -19 -167 -51 -367 -90 -618 -121 -47 -5 -116 -14 -155 -20 -90 -12 -730
-12 -855 0 -195 20 -536 71 -630 94 -30 8 -80 17 -110 21 -30 4 -63 11 -72 16
-9 5 -45 16 -80 23 -68 16 -103 25 -188 51 -30 9 -80 23 -110 31 -30 9 -69 22
-87 30 -17 8 -38 14 -47 14 -16 0 -132 43 -176 65 -14 7 -41 16 -60 20 -19 4
-51 16 -70 26 -19 11 -40 19 -47 19 -7 0 -27 9 -45 20 -18 11 -40 20 -48 20
-8 0 -36 11 -62 25 -26 14 -53 25 -61 25 -8 0 -20 7 -27 15 -7 8 -19 15 -27
15 -17 0 -320 148 -328 160 -3 4 -15 10 -27 14 -13 3 -81 38 -153 77 -71 39
-142 78 -156 86 -15 7 -32 20 -39 28 -7 8 -17 15 -23 15 -9 0 -169 93 -192
112 -25 20 -85 57 -104 63 -12 3 -21 10 -21 14 0 4 -12 13 -27 20 -16 7 -35
19 -43 27 -8 8 -31 25 -50 37 -66 44 -175 120 -195 137 -11 10 -51 39 -90 65
-38 27 -77 54 -85 62 -8 7 -60 49 -115 92 -55 44 -122 100 -150 125 -27 25
-53 46 -57 46 -7 0 -25 15 -203 174 -43 39 -104 93 -135 121 -91 81 -552 545
-605 610 -28 33 -63 73 -80 90 -16 17 -57 63 -90 101 -33 38 -65 74 -71 79
-21 19 -276 339 -399 501 -87 114 -171 234 -288 409 -62 94 -122 183 -132 199
-11 16 -24 36 -30 44 -5 9 -38 54 -72 101 -35 47 -80 110 -100 139 -32 45 -83
112 -149 197 -8 11 -47 63 -86 115 -39 52 -74 97 -77 100 -13 11 -98 116 -107
131 -5 9 -30 41 -56 70 -25 30 -83 99 -128 154 -45 55 -89 107 -98 116 -10 8
-42 44 -72 79 -230 268 -624 666 -910 920 -40 36 -78 70 -84 75 -6 6 -40 34
-76 62 -36 29 -82 67 -102 84 -39 33 -210 163 -249 189 -12 8 -36 27 -53 41
-27 22 -179 125 -227 154 -9 6 -41 27 -71 48 -31 20 -59 37 -63 37 -4 0 -32
16 -62 36 -30 20 -103 61 -161 91 -59 30 -114 58 -122 63 -76 44 -285 133
-480 205 -56 21 -202 64 -240 71 -19 4 -39 10 -45 14 -5 5 -39 13 -75 20 -36
7 -83 18 -105 25 -22 8 -67 17 -100 20 -33 4 -116 16 -185 27 -111 17 -158 19
-425 15 -171 -3 -317 -9 -340 -16 -22 -6 -78 -15 -125 -21 -47 -6 -105 -17
-130 -25 -25 -8 -70 -18 -100 -24 -30 -5 -68 -17 -85 -25 -16 -9 -41 -16 -55
-16 -14 0 -43 -9 -65 -19 -22 -10 -53 -21 -70 -25 -30 -7 -114 -38 -170 -62
-104 -45 -141 -62 -240 -111 -60 -30 -128 -66 -150 -79 -22 -13 -56 -31 -75
-40 -19 -9 -37 -19 -40 -23 -3 -3 -49 -32 -102 -64 -53 -32 -102 -65 -109 -73
-6 -8 -17 -14 -25 -14 -7 0 -18 -9 -24 -20 -6 -11 -15 -20 -21 -20 -9 0 -103
-68 -145 -105 -7 -5 -36 -30 -65 -55 -140 -116 -422 -414 -490 -517 -10 -16
-37 -53 -59 -83 -23 -30 -52 -73 -66 -95 -15 -22 -38 -57 -52 -78 -25 -37 -72
-123 -112 -202 -11 -22 -24 -47 -29 -55 -13 -21 -61 -127 -61 -136 0 -4 -8
-25 -19 -48 -20 -46 -30 -73 -70 -196 -50 -150 -69 -224 -76 -285 -4 -33 -13
-78 -20 -100 -15 -43 -31 -205 -41 -410 -7 -150 20 -545 42 -607 7 -22 16 -62
20 -91 3 -29 15 -83 26 -122 50 -175 71 -242 84 -267 8 -14 14 -32 14 -40 0
-8 9 -31 19 -52 11 -21 23 -51 26 -66 3 -16 13 -34 21 -41 8 -6 14 -16 14 -22
0 -14 69 -155 79 -161 5 -3 12 -17 15 -31 4 -14 33 -68 66 -119 33 -51 60 -96
60 -101 0 -4 11 -21 25 -39 35 -43 36 -45 75 -101 151 -214 426 -500 660 -686
80 -63 158 -124 174 -134 16 -11 39 -27 51 -35 13 -8 60 -40 106 -72 46 -31
104 -67 129 -80 25 -14 61 -34 80 -46 50 -32 356 -182 369 -182 7 0 29 -9 49
-19 20 -11 71 -31 112 -46 41 -15 84 -32 95 -37 10 -6 46 -17 80 -24 33 -8 69
-19 80 -24 30 -14 230 -61 385 -90 222 -41 668 -62 860 -40 47 5 147 14 223
19 151 11 355 41 488 71 47 11 98 20 112 20 15 0 48 7 74 16 26 10 75 23 108
30 131 28 410 117 473 150 15 8 38 14 52 14 14 0 39 9 55 20 17 11 36 20 43
20 12 0 50 16 170 71 23 10 61 28 85 38 87 39 255 123 342 171 50 27 104 56
120 65 17 8 62 35 100 60 39 24 97 61 130 80 33 20 76 46 96 58 39 24 223 157
334 241 42 32 248 198 260 209 7 7 37 32 66 57 113 95 337 310 511 490 157
163 187 190 225 201 38 10 53 10 98 -5 103 -32 146 -141 93 -233 -12 -21 -27
-42 -33 -48 -6 -5 -35 -39 -65 -75 -30 -36 -59 -69 -64 -75 -6 -5 -24 -26 -40
-45 -134 -164 -495 -527 -691 -696 -33 -29 -73 -63 -90 -78 -16 -14 -93 -75
-170 -136 -77 -60 -147 -116 -156 -125 -9 -8 -19 -15 -23 -15 -5 0 -29 -17
-55 -38 -25 -21 -66 -51 -91 -67 -24 -17 -51 -36 -60 -43 -15 -14 -124 -85
-172 -112 -49 -28 -103 -60 -133 -80 -150 -97 -560 -310 -645 -335 -14 -4 -32
-13 -40 -20 -8 -7 -26 -16 -40 -19 -22 -6 -98 -37 -165 -66 -21 -9 -116 -44
-200 -74 -27 -10 -68 -22 -90 -27 -22 -6 -49 -15 -60 -21 -11 -6 -49 -19 -85
-29 -36 -9 -108 -29 -160 -44 -465 -131 -1215 -223 -1600 -197 -216 15 -444
40 -515 57 -33 8 -85 18 -115 23 -58 10 -118 24 -210 49 -30 8 -80 21 -110 28
-30 7 -72 20 -92 29 -21 9 -45 16 -55 16 -10 1 -36 9 -58 20 -22 11 -47 20
-55 20 -8 0 -28 7 -45 16 -16 9 -52 23 -80 31 -27 8 -59 21 -70 29 -11 8 -27
14 -37 14 -10 0 -39 11 -65 25 -27 13 -127 63 -223 111 -96 47 -211 108 -255
135 -44 27 -89 53 -100 58 -12 5 -27 16 -34 25 -7 9 -18 16 -24 16 -5 0 -35
17 -65 38 -60 41 -80 54 -138 93 -43 30 -158 118 -189 146 -11 10 -45 38 -75
62 -171 137 -366 330 -518 511 -54 63 -103 121 -110 130 -32 37 -130 168 -148
197 -10 17 -35 55 -55 85 -46 67 -101 156 -117 188 -7 14 -23 43 -36 65 -110
187 -253 514 -314 720 -12 39 -29 95 -38 125 -9 30 -23 82 -30 115 -7 33 -17
80 -23 105 -28 125 -52 267 -61 370 -6 63 -15 147 -20 185 -12 90 -12 430 0
520 5 39 14 120 19 180 10 114 42 303 66 390 8 28 17 68 20 90 4 22 16 69 27
105 11 36 29 97 40 135 30 101 64 195 115 315 25 58 51 121 59 140 8 19 19 42
25 50 5 8 14 26 20 40 55 128 268 490 334 567 5 6 21 28 35 48 34 50 189 245
214 271 12 12 37 41 56 65 45 56 341 353 399 399 24 19 53 44 65 56 19 19 161
132 211 169 11 8 45 34 75 58 30 23 78 57 105 75 28 17 70 45 95 62 84 57 180
119 205 132 13 7 60 31 102 53 43 22 83 45 90 52 7 6 26 14 42 18 16 3 35 13
42 21 6 8 16 14 21 14 9 0 101 44 158 76 14 7 32 14 40 14 8 0 29 9 45 20 17
11 37 20 45 20 8 0 28 7 45 16 44 23 210 84 295 109 25 7 62 20 82 29 21 9 50
16 65 16 16 0 38 6 49 14 11 8 48 19 82 26 34 6 79 17 99 24 21 7 65 16 98 20
32 4 82 13 110 21 27 8 94 19 149 25 54 6 103 13 108 16 32 20 669 30 878 14z"/>
</g>
</svg>
